<svg width="138" height="150" viewBox="0 0 138 150" fill="none" xmlns="http://www.w3.org/2000/svg">
<path d="M69 138C59.9388 138 50.9663 136.215 42.5948 132.748C34.2234 129.28 26.6169 124.198 20.2096 117.79C13.8024 111.383 8.71988 103.777 5.25231 95.4052C1.78474 87.0337 -7.92156e-07 78.0612 0 69C7.92156e-07 59.9388 1.78474 50.9663 5.25232 42.5948C8.71989 34.2234 13.8024 26.6169 20.2096 20.2096C26.6169 13.8024 34.2234 8.71988 42.5949 5.25231C50.9663 1.78474 59.9388 -1.18823e-06 69 0L69 138Z" fill="url(#paint0_linear_11_14)"/>
<path d="M69 12C78.0612 12 87.0337 13.7847 95.4052 17.2523C103.777 20.7199 111.383 25.8024 117.79 32.2096C124.198 38.6169 129.28 46.2234 132.748 54.5949C136.215 62.9663 138 71.9388 138 81C138 90.0612 136.215 99.0337 132.748 107.405C129.28 115.777 124.198 123.383 117.79 129.79C111.383 136.198 103.777 141.28 95.4052 144.748C87.0337 148.215 78.0612 150 69 150L69 12Z" fill="url(#paint1_linear_11_14)"/>
<defs>
<linearGradient id="paint0_linear_11_14" x1="138" y1="-8.02076e-06" x2="138" y2="150" gradientUnits="userSpaceOnUse">
<stop stop-color="#CEE2FF"/>
<stop offset="0.505208" stop-color="#118DFF"/>
<stop offset="1" stop-color="#1145FF" stop-opacity="0.68"/>
<stop offset="1" stop-color="#1145FF"/>
</linearGradient>
<linearGradient id="paint1_linear_11_14" x1="69" y1="150" x2="69" y2="12" gradientUnits="userSpaceOnUse">
<stop stop-color="#CEE2FF"/>
<stop offset="0.505208" stop-color="#118DFF"/>
<stop offset="1" stop-color="#1145FF" stop-opacity="0.68"/>
<stop offset="1" stop-color="#1145FF"/>
</linearGradient>
</defs>
</svg>
